<?xml version="1.0" standalone="no"?>
<!DOCTYPE svg PUBLIC "-//W3C//DTD SVG 20010904//EN"
 "http://www.w3.org/TR/2001/REC-SVG-20010904/DTD/svg10.dtd">
<svg version="1.0" xmlns="http://www.w3.org/2000/svg"
 width="512.000000pt" height="512.000000pt" viewBox="0 0 512.000000 512.000000"
 preserveAspectRatio="xMidYMid meet">

<g transform="translate(0.000000,512.000000) scale(0.100000,-0.100000)"
fill="#000000" stroke="none">
<path d="M3535 4779 c-153 -20 -310 -79 -429 -162 -41 -29 -79 -47 -108 -51
-60 -9 -145 -61 -185 -114 -50 -66 -66 -136 -65 -283 2 -119 19 -287 43 -406
l10 -53 44 0 c24 0 56 5 70 10 35 13 134 108 198 190 29 36 59 70 67 77 23 19
61 15 131 -13 186 -76 499 -105 748 -69 119 17 124 17 148 -1 13 -11 46 -57
71 -104 l47 -85 60 -6 c33 -3 68 -9 77 -13 24 -11 33 71 32 289 -1 211 -16
284 -89 431 -62 127 -150 215 -278 278 -105 51 -174 71 -302 86 -104 11 -191
11 -290 -1z"/>
<path d="M3110 2813 c0 -89 1 -92 28 -111 101 -72 275 -129 421 -138 167 -11
357 36 494 122 l57 36 0 90 0 90 -44 -36 c-107 -87 -269 -151 -410 -162 -181
-14 -392 57 -518 174 l-28 26 0 -91z"/>
<path d="M835 2158 c-11 -6 -58 -48 -105 -94 -84 -82 -87 -84 -258 -159 -298
-130 -342 -158 -406 -264 -69 -113 -70 -129 -46 -695 23 -544 24 -547 83 -590
28 -21 34 -21 1186 -24 l1158 -2 33 22 c69 47 67 32 91 587 16 390 19 516 10
559 -22 112 -86 210 -177 273 -24 16 -137 70 -251 120 l-208 90 -85 83 c-93
91 -119 109 -147 100 -10 -4 -102 -89 -204 -190 -155 -155 -190 -184 -215
-184 -24 0 -54 25 -189 163 -213 218 -227 229 -270 205z"/>
<path d="M3537 2052 c-62 -62 -67 -71 -67 -111 0 -23 7 -55 16 -70 15 -25 13
-81 -25 -736 -22 -391 -43 -731 -45 -758 l-5 -47 194 0 195 0 0 23 c1 12 -18
352 -42 756 -40 696 -41 735 -25 763 9 16 17 49 17 72 0 38 -6 47 -68 109 -37
37 -70 67 -73 67 -2 0 -35 -30 -72 -68z"/>
</g>
</svg>
